<svg width="16" height="17" viewBox="0 0 16 17" fill="none" xmlns="http://www.w3.org/2000/svg">
<path d="M8.00016 1.33331H7.96191C6.42298 1.3333 5.21696 1.3333 4.27597 1.45981C3.31281 1.5893 2.55279 1.85953 1.95625 2.45607C1.35971 3.05261 1.08949 3.81263 0.959994 4.77578C0.833481 5.71677 0.833488 6.9228 0.833496 8.46173V8.53823C0.833488 10.0772 0.833481 11.2832 0.959994 12.2242C1.08949 13.1873 1.35971 13.9473 1.95625 14.5439C2.55279 15.1404 3.31281 15.4107 4.27597 15.5401C5.21696 15.6667 6.42298 15.6667 7.96191 15.6666H8.03841C9.57734 15.6667 10.7834 15.6667 11.7244 15.5401C12.6875 15.4107 13.4475 15.1404 14.0441 14.5439C14.6406 13.9473 14.9108 13.1873 15.0403 12.2242C15.1668 11.2832 15.1668 10.0772 15.1668 8.53823V8.49998C15.1668 8.22384 14.943 7.99998 14.6668 7.99998C14.3907 7.99998 14.1668 8.22384 14.1668 8.49998C14.1668 10.0855 14.1658 11.2243 14.0492 12.0909C13.9347 12.9432 13.7167 13.457 13.337 13.8368C12.9572 14.2166 12.4434 14.4345 11.5911 14.5491C10.7245 14.6656 9.58564 14.6666 8.00016 14.6666C6.41468 14.6666 5.27587 14.6656 4.40921 14.5491C3.55695 14.4345 3.04313 14.2166 2.66336 13.8368C2.28359 13.457 2.06566 12.9432 1.95108 12.0909C1.83456 11.2243 1.8335 10.0855 1.8335 8.49998C1.8335 6.9145 1.83456 5.77568 1.95108 4.90903C2.06566 4.05676 2.28359 3.54295 2.66336 3.16318C3.04313 2.78341 3.55695 2.56548 4.40921 2.45089C5.27587 2.33438 6.41468 2.33331 8.00016 2.33331C8.2763 2.33331 8.50016 2.10946 8.50016 1.83331C8.50016 1.55717 8.2763 1.33331 8.00016 1.33331Z" fill="#667080"/>
<path d="M8.31328 7.47976C8.11801 7.67502 8.11801 7.9916 8.31328 8.18687C8.50854 8.38213 8.82512 8.38213 9.02038 8.18687L14.1668 3.04042V5.39581C14.1668 5.67196 14.3907 5.89581 14.6668 5.89581C14.943 5.89581 15.1668 5.67196 15.1668 5.39581V1.83331C15.1668 1.55717 14.943 1.33331 14.6668 1.33331H11.1043C10.8282 1.33331 10.6043 1.55717 10.6043 1.83331C10.6043 2.10946 10.8282 2.33331 11.1043 2.33331H13.4597L8.31328 7.47976Z" fill="#667080"/>
</svg>
