<svg width="25" height="24" viewBox="0 0 25 24" fill="none" xmlns="http://www.w3.org/2000/svg">
<path d="M12.5 0.295868C5.86974 0.295868 0.5 5.66561 0.5 12.2959C0.5 17.6061 3.93513 22.091 8.70487 23.6802C9.30487 23.7856 9.52922 23.4256 9.52922 23.1105C9.52922 22.8256 9.51461 21.8813 9.51461 20.8753C6.5 21.4305 5.72052 20.1407 5.48052 19.4667C5.34487 19.1213 4.76052 18.0559 4.24922 17.771C3.82974 17.5456 3.22974 16.9905 4.23461 16.9759C5.18 16.9613 5.85513 17.8461 6.08052 18.2061C7.16052 20.0218 8.88539 19.5105 9.57513 19.1953C9.67948 18.4159 9.99461 17.891 10.34 17.5905C7.66974 17.291 4.88052 16.2559 4.88052 11.6656C4.88052 10.3613 5.34487 9.28126 6.10974 8.44126C5.98974 8.14074 5.57026 6.91048 6.22974 5.26074C6.22974 5.26074 7.23461 4.94561 9.53026 6.491C10.4903 6.22074 11.5097 6.08613 12.5303 6.08613C13.5497 6.08613 14.5703 6.22178 15.5303 6.491C17.8259 4.931 18.8297 5.26074 18.8297 5.26074C19.4903 6.91048 19.0697 8.14074 18.9497 8.44126C19.7146 9.28126 20.18 10.3456 20.18 11.6656C20.18 16.2705 17.3751 17.29 14.7049 17.5905C15.14 17.9661 15.5146 18.6861 15.5146 19.811C15.5146 21.4159 15.5 22.7056 15.5 23.1105C15.5 23.4256 15.7254 23.8013 16.3243 23.6813C21.0659 22.091 24.5 17.5905 24.5 12.2959C24.5 5.66561 19.1303 0.295868 12.5 0.295868Z" fill="black"/>
</svg>
