<svg width="25" height="24" viewBox="0 0 25 24" fill="none" xmlns="http://www.w3.org/2000/svg">
<path d="M22.7 0H2.3C1.82261 0 1.36477 0.189642 1.02721 0.527208C0.689642 0.864773 0.5 1.32261 0.5 1.8V22.2C0.5 22.6774 0.689642 23.1352 1.02721 23.4728C1.36477 23.8104 1.82261 24 2.3 24H22.7C23.1774 24 23.6352 23.8104 23.9728 23.4728C24.3104 23.1352 24.5 22.6774 24.5 22.2V1.8C24.5 1.32261 24.3104 0.864773 23.9728 0.527208C23.6352 0.189642 23.1774 0 22.7 0ZM7.7 20.4H4.1V9.6H7.7V20.4ZM5.9 7.5C5.48742 7.48821 5.08746 7.35509 4.7501 7.11729C4.41274 6.87949 4.15294 6.54754 4.00315 6.16293C3.85337 5.77832 3.82025 5.35809 3.90793 4.95476C3.99561 4.55144 4.2002 4.18289 4.49614 3.89517C4.79207 3.60745 5.16624 3.41332 5.57188 3.33704C5.97752 3.26075 6.39664 3.30569 6.77688 3.46625C7.15712 3.62681 7.48162 3.89586 7.70983 4.23978C7.93804 4.5837 8.05983 4.98725 8.06 5.4C8.05052 5.96442 7.818 6.50214 7.41326 6.89564C7.00852 7.28914 6.46446 7.50642 5.9 7.5ZM20.9 20.4H17.3V14.712C17.3 13.008 16.58 12.396 15.644 12.396C15.3696 12.4143 15.1015 12.4866 14.8551 12.6088C14.6087 12.731 14.3888 12.9006 14.2082 13.108C14.0275 13.3154 13.8897 13.5565 13.8025 13.8173C13.7152 14.0782 13.6804 14.3537 13.7 14.628C13.694 14.6838 13.694 14.7402 13.7 14.796V20.4H10.1V9.6H13.58V11.16C13.931 10.626 14.4133 10.1911 14.9806 9.89692C15.5479 9.60276 16.1813 9.4592 16.82 9.48C18.68 9.48 20.852 10.512 20.852 13.872L20.9 20.4Z" fill="#0B66C2"/>
</svg>
